<?xml version="1.0" ?>
<!-- Uploaded to: SVG Repo, www.svgrepo.com, Generator: SVG Repo Mixer Tools -->
<svg width="800px" height="800px" viewBox="0 0 64 64" id="svg5" version="1.1" xml:space="preserve" xmlns="http://www.w3.org/2000/svg" xmlns:svg="http://www.w3.org/2000/svg">
<defs id="defs2"/>
<g id="layer1">
<path d="m 10,9 h 49 v 6 H 10 Z" id="rect12474" style="fill:#3e4f59;fill-opacity:1;fill-rule:evenodd;stroke-width:2;stroke-linecap:round;stroke-linejoin:round;stroke-miterlimit:4.1"/>
<path d="M 10,15 H 59 V 55 H 10 Z" id="rect12428" style="fill:#acbec2;fill-opacity:1;fill-rule:evenodd;stroke-width:2.00001;stroke-linecap:round;stroke-linejoin:round;stroke-miterlimit:4.1"/>
<path d="m 10,15 v 40 h 29.769532 a 28.484051,41.392605 35.599482 0 0 18.625,-40 z" id="path6131" style="fill:#e8edee;fill-opacity:1;fill-rule:evenodd;stroke:none;stroke-width:2.00002;stroke-linecap:round;stroke-linejoin:round;stroke-miterlimit:4.1"/>
<path d="M 12,8 C 10.354994,8 9,9.3549933 9,11 v 40 c 0,0.552285 0.4477153,1 1,1 0.552285,0 1,-0.447715 1,-1 V 11 c 0,-0.564128 0.435873,-1 1,-1 h 45 c 0.564127,0 1,0.435872 1,1 v 3 H 16 c -0.552285,0 -1,0.447715 -1,1 0,0.552285 0.447715,1 1,1 h 42 v 37 c 0,0.564127 -0.435873,1 -1,1 H 8 c -0.5522847,0 -1,0.447715 -1,1 0,0.552285 0.4477153,1 1,1 h 49 c 1.645006,0 3,-1.354994 3,-3 0,-14 0,-28 0,-42 0,-1.6450067 -1.354994,-3 -3,-3 z" id="rect685" style="color:#000000;fill:#000000;fill-rule:evenodd;stroke-linecap:round;stroke-linejoin:round;stroke-miterlimit:4.1"/>
<path d="m 55,11 c -0.552285,0 -1,0.447715 -1,1 0,0.552285 0.447715,1 1,1 0.552285,0 1,-0.447715 1,-1 0,-0.552285 -0.447715,-1 -1,-1 z" id="path1338" style="color:#000000;fill:#ed7161;fill-opacity:1;fill-rule:evenodd;stroke-linecap:round;stroke-linejoin:round;stroke-miterlimit:4.1;-inkscape-stroke:none"/>
<path d="m 51,11 c -0.552285,0 -1,0.447715 -1,1 0,0.552285 0.447715,1 1,1 0.552285,0 1,-0.447715 1,-1 0,-0.552285 -0.447715,-1 -1,-1 z" id="path1376" style="color:#000000;fill:#ecba16;fill-opacity:1;fill-rule:evenodd;stroke-linecap:round;stroke-linejoin:round;stroke-miterlimit:4.1;-inkscape-stroke:none"/>
<path d="m 47,11 c -0.552285,0 -1,0.447715 -1,1 0,0.552285 0.447715,1 1,1 0.552285,0 1,-0.447715 1,-1 0,-0.552285 -0.447715,-1 -1,-1 z" id="path1378" style="color:#000000;fill:#42b05c;fill-opacity:1;fill-rule:evenodd;stroke-linecap:round;stroke-linejoin:round;stroke-miterlimit:4.1;-inkscape-stroke:none"/>
<path d="M 5,54 A 1,1 0 0 0 4,55 1,1 0 0 0 5,56 1,1 0 0 0 6,55 1,1 0 0 0 5,54 Z" id="path7191" style="color:#000000;fill:#000000;fill-rule:evenodd;stroke-linecap:round;stroke-linejoin:round;stroke-miterlimit:4.1;-inkscape-stroke:none"/>
<path d="m 13,14 c -0.552285,0 -1,0.447715 -1,1 0,0.552285 0.447715,1 1,1 0.552285,0 1,-0.447715 1,-1 0,-0.552285 -0.447715,-1 -1,-1 z" id="path11276" style="color:#000000;fill:#000000;fill-rule:evenodd;stroke-linecap:round;stroke-linejoin:round;stroke-miterlimit:4.1;-inkscape-stroke:none"/>
<path d="m 22,32 v 11.999372 a 1,1 0 0 0 1,1 h 2 V 49 l 3.444445,-4.000628 H 35 a 1,1 0 0 0 1,-1 V 32 A 1,1 0 0 0 35,31 H 23 a 1,1 0 0 0 -1,1 z" id="path1961" style="fill:#ffa221;fill-opacity:1;fill-rule:evenodd;stroke:none;stroke-width:2;stroke-linecap:round;stroke-linejoin:round;stroke-miterlimit:4.1"/>
<path d="m 23,31 a 1,1 0 0 0 -1,1 v 12 a 1,1 0 0 0 1,1 h 2 v 4 l 3.445312,-4 h 3.917969 A 12.500156,14.404607 0 0 0 33.5,39 12.500156,14.404607 0 0 0 31.390625,31 Z" id="path4944" style="fill:#ffc343;fill-opacity:1;fill-rule:evenodd;stroke:none;stroke-width:2;stroke-linecap:round;stroke-linejoin:round;stroke-miterlimit:4.1"/>
<path d="m 23,30 c -1.092723,0 -2,0.907277 -2,2 v 6 a 1,1 0 0 0 1,1 1,1 0 0 0 1,-1 v -6 h 6.931641 a 1,1 0 0 0 1,-1 1,1 0 0 0 -1,-1 z m 13,6.041016 a 1,1 0 0 0 -1,1 V 44 H 28.445312 A 1.0001,1.0001 0 0 0 27.6875,44.347656 L 26,46.306641 V 45 a 1.0001,1.0001 0 0 0 -1,-1 h -2 v -2 a 1,1 0 0 0 -1,-1 1,1 0 0 0 -1,1 v 2 c 0,1.092723 0.907277,2 2,2 h 1 v 3 a 1.0001,1.0001 0 0 0 1.757812,0.652344 L 28.902344,46 H 35 c 1.092723,0 2,-0.907277 2,-2 v -6.958984 a 1,1 0 0 0 -1,-1 z" id="path6448" style="color:#000000;fill:#000000;fill-rule:evenodd;stroke-linecap:round;stroke-linejoin:round;stroke-miterlimit:4.1"/>
<g id="g7072" style="fill:none" transform="translate(0,1.4987444)">
<path d="m 29,32.501953 a 1.0001,1.0001 0 0 0 -0.894531,0.552734 l -3,6 a 1,1 0 0 0 0.447265,1.341797 1,1 0 0 0 1.341797,-0.447265 L 29,35.738281 l 2.105469,4.210938 a 1,1 0 0 0 1.341797,0.447265 1,1 0 0 0 0.447265,-1.341797 l -3,-6 A 1.0001,1.0001 0 0 0 29,32.501953 Z" id="path7066" style="color:#000000;fill:#000000;fill-rule:evenodd;stroke-linecap:round;stroke-linejoin:round;stroke-miterlimit:4.1;-inkscape-stroke:none"/>
</g>
<path d="M 47,20.999372 V 33 a 1,1 0 0 1 -1,1 h -2 v 4 L 41.055555,34 H 34 A 1,1 0 0 1 33,33 V 20.999372 a 1,1 0 0 1 1,-1 h 12 a 1,1 0 0 1 1,1 z" id="path1959" style="fill:#0075d3;fill-opacity:1;fill-rule:evenodd;stroke:none;stroke-width:2;stroke-linecap:round;stroke-linejoin:round;stroke-miterlimit:4.1"/>
<path d="m 34,20 a 1,1 0 0 0 -1,1 v 12 a 1,1 0 0 0 1,1 h 7.054688 L 44,38 v -4 h 1.476562 A 11.000078,16.405439 0 0 0 38.955078,20 Z" id="path5717" style="fill:#0588e2;fill-opacity:1;fill-rule:evenodd;stroke:none;stroke-width:2;stroke-linecap:round;stroke-linejoin:round;stroke-miterlimit:4.1"/>
<path d="m 34,19 c -1.092723,0 -2,0.907277 -2,2 v 12 c 0,1.092723 0.907277,2 2,2 h 6.550781 l 2.644531,3.59375 A 1.0001,1.0001 0 0 0 45,38 v -3 h 1 c 1.092723,0 2,-0.907277 2,-2 v -6.949219 a 1,1 0 0 0 -1,-1 1,1 0 0 0 -1,1 V 33 h -2 a 1.0001,1.0001 0 0 0 -1,1 v 0.953125 L 41.861328,33.40625 A 1.0001,1.0001 0 0 0 41.054687,33 H 34 V 21 h 12 v 1 a 1,1 0 0 0 1,1 1,1 0 0 0 1,-1 v -1 c 0,-1.092723 -0.907277,-2 -2,-2 z" id="path9984" style="color:#000000;fill:#000000;fill-rule:evenodd;stroke-linecap:round;stroke-linejoin:round;stroke-miterlimit:4.1;-inkscape-stroke:none"/>
<g id="g9989" style="fill:none" transform="translate(-6.5000138,-10)">
<g id="g8528" transform="rotate(90,38.000031,46.000031)">
<path d="m 25,40.000048 a 1,1 0 0 0 1,1 1,1 0 0 0 1,-1 v -3.410156 c 0.594883,0.253277 1.131325,0.525663 1.609375,0.820312 l -0.181641,0.314454 a 1,1 0 0 0 -0.101562,0.759765 1,1 0 0 0 0.466797,0.605469 1,1 0 0 0 1.365234,-0.365234 l 0.01367,-0.02539 c 0.407864,0.47454 0.701093,0.997064 0.867187,1.576172 a 1,1 0 0 0 1.236329,0.685547 1,1 0 0 0 0.685547,-1.236328 c -0.315659,-1.100583 -0.89256,-2.068713 -1.703126,-2.902344 l 0.314454,-0.546875 a 1,1 0 0 0 -0.365235,-1.365235 1,1 0 0 0 -1.365234,0.365235 l -0.158203,0.27539 c -0.961209,-0.616027 -2.0999,-1.119509 -3.396483,-1.507813 A 1.0001,1.0001 0 0 0 25,35.000048 Z" id="path8526" style="color:#000000;fill:#000000;fill-rule:evenodd;stroke-linecap:round;stroke-linejoin:round;stroke-miterlimit:4.1;-inkscape-stroke:none"/>
</g>
</g>
</g>
</svg>